<svg width="383" height="810" viewBox="0 0 383 810" fill="none" xmlns="http://www.w3.org/2000/svg">
<g clip-path="url(#clip0_9_98)">
<rect width="383" height="810" fill="#F57BA2"/>
<path d="M288.327 923.931C181.07 923.931 125.455 862.358 125.455 751.129V694.521H228.74V756.095C228.74 805.75 250.588 824.62 285.347 824.62C320.106 824.62 341.955 807.737 341.955 746.163V689.556C341.955 625.003 320.106 601.168 270.45 601.168H233.705V501.857H273.43C314.148 501.857 338.975 483.981 338.975 428.366V377.717C338.975 328.061 316.134 308.199 284.354 308.199C252.574 308.199 231.719 327.068 231.719 372.752V418.435H128.435V381.69C128.435 270.461 184.049 208.887 288.327 208.887C392.604 208.887 448.218 269.468 448.218 380.697V405.525C448.218 480.008 424.383 525.692 370.755 545.554V547.54C429.349 569.389 451.198 620.038 451.198 690.549V752.122C451.198 863.351 395.583 923.931 288.327 923.931Z" fill="url(#paint0_linear_9_98)"/>
<path d="M55.2803 113H52.4875L60.5651 91.0014H63.3149L71.3925 113H68.5998L62.026 94.4816H61.8541L55.2803 113ZM56.3115 104.407H67.5686V106.77H56.3115V104.407ZM83.9657 106.254V96.501H86.5007V113H83.9657V110.207H83.7938C83.4071 111.045 82.8056 111.758 81.9893 112.345C81.1729 112.925 80.1417 113.215 78.8957 113.215C77.8645 113.215 76.9479 112.989 76.1459 112.538C75.3438 112.08 74.7137 111.392 74.2554 110.476C73.7971 109.552 73.5679 108.388 73.5679 106.985V96.501H76.1029V106.813C76.1029 108.016 76.4395 108.976 77.1126 109.692C77.7929 110.408 78.6594 110.766 79.7121 110.766C80.3422 110.766 80.9831 110.605 81.6348 110.282C82.2936 109.96 82.845 109.466 83.289 108.8C83.7401 108.134 83.9657 107.286 83.9657 106.254ZM96.4663 113.344C95.0914 113.344 93.8776 112.996 92.825 112.302C91.7723 111.6 90.9488 110.612 90.3544 109.337C89.7601 108.055 89.4629 106.541 89.4629 104.793C89.4629 103.061 89.7601 101.557 90.3544 100.282C90.9488 99.0074 91.7759 98.0228 92.8357 97.3281C93.8955 96.6335 95.1201 96.2862 96.5093 96.2862C97.5834 96.2862 98.432 96.4652 99.055 96.8233C99.6852 97.1742 100.165 97.5752 100.494 98.0263C100.831 98.4703 101.092 98.8355 101.279 99.122H101.493V91.0014H104.028V113H101.579V110.465H101.279C101.092 110.766 100.827 111.145 100.484 111.604C100.14 112.055 99.6494 112.459 99.0121 112.817C98.3747 113.168 97.5262 113.344 96.4663 113.344ZM96.8101 111.067C97.8269 111.067 98.6862 110.802 99.388 110.272C100.09 109.735 100.623 108.993 100.989 108.048C101.354 107.096 101.536 105.997 101.536 104.751C101.536 103.519 101.357 102.441 100.999 101.517C100.641 100.586 100.111 99.8631 99.4095 99.3475C98.7077 98.8248 97.8412 98.5634 96.8101 98.5634C95.7359 98.5634 94.8408 98.8391 94.1247 99.3905C93.4157 99.9348 92.8823 100.676 92.5242 101.614C92.1733 102.545 91.9979 103.59 91.9979 104.751C91.9979 105.925 92.1769 106.992 92.5349 107.951C92.9002 108.904 93.4372 109.663 94.1462 110.229C94.8623 110.787 95.7502 111.067 96.8101 111.067ZM108.116 113V96.501H110.651V113H108.116ZM109.405 93.7512C108.911 93.7512 108.485 93.5829 108.126 93.2464C107.776 92.9098 107.6 92.5052 107.6 92.0326C107.6 91.56 107.776 91.1554 108.126 90.8188C108.485 90.4822 108.911 90.3139 109.405 90.3139C109.899 90.3139 110.321 90.4822 110.672 90.8188C111.03 91.1554 111.209 91.56 111.209 92.0326C111.209 92.5052 111.03 92.9098 110.672 93.2464C110.321 93.5829 109.899 93.7512 109.405 93.7512ZM121.304 113.344C119.714 113.344 118.343 112.993 117.19 112.291C116.044 111.582 115.16 110.594 114.537 109.326C113.921 108.052 113.613 106.569 113.613 104.879C113.613 103.189 113.921 101.7 114.537 100.411C115.16 99.1148 116.026 98.1051 117.136 97.3819C118.253 96.6514 119.557 96.2862 121.046 96.2862C121.905 96.2862 122.754 96.4294 123.592 96.7159C124.43 97.0023 125.192 97.4678 125.88 98.1123C126.567 98.7496 127.115 99.5946 127.523 100.647C127.931 101.7 128.135 102.996 128.135 104.536V105.61H115.417V103.419H125.557C125.557 102.488 125.371 101.657 124.999 100.927C124.634 100.196 124.111 99.6197 123.431 99.1972C122.757 98.7747 121.963 98.5634 121.046 98.5634C120.036 98.5634 119.163 98.8141 118.425 99.3153C117.695 99.8094 117.133 100.454 116.739 101.249C116.345 102.044 116.148 102.896 116.148 103.805V105.266C116.148 106.512 116.363 107.568 116.792 108.435C117.229 109.294 117.834 109.949 118.608 110.401C119.381 110.845 120.28 111.067 121.304 111.067C121.97 111.067 122.571 110.973 123.108 110.787C123.653 110.594 124.122 110.307 124.516 109.928C124.909 109.541 125.214 109.061 125.429 108.489L127.878 109.176C127.62 110.007 127.187 110.737 126.578 111.367C125.969 111.99 125.217 112.477 124.322 112.828C123.427 113.172 122.421 113.344 121.304 113.344ZM133.619 103.075V113H131.084V96.501H133.533V99.079H133.748C134.135 98.2412 134.722 97.568 135.51 97.0596C136.297 96.544 137.314 96.2862 138.56 96.2862C139.677 96.2862 140.655 96.5154 141.493 96.9737C142.331 97.4248 142.982 98.1123 143.448 99.036C143.913 99.9527 144.146 101.113 144.146 102.516V113H141.611V102.688C141.611 101.392 141.274 100.382 140.601 99.6591C139.928 98.9286 139.004 98.5634 137.83 98.5634C137.021 98.5634 136.297 98.7389 135.66 99.0898C135.03 99.4406 134.532 99.9527 134.167 100.626C133.802 101.299 133.619 102.115 133.619 103.075ZM154.573 113.344C153.027 113.344 151.695 112.979 150.578 112.248C149.46 111.518 148.601 110.512 148 109.23C147.398 107.948 147.097 106.483 147.097 104.836C147.097 103.161 147.405 101.682 148.021 100.4C148.644 99.1112 149.511 98.1051 150.62 97.3819C151.738 96.6514 153.041 96.2862 154.53 96.2862C155.69 96.2862 156.736 96.501 157.667 96.9307C158.598 97.3604 159.36 97.9619 159.955 98.7353C160.549 99.5087 160.918 100.411 161.061 101.442H158.526C158.333 100.69 157.903 100.024 157.237 99.4442C156.578 98.857 155.69 98.5634 154.573 98.5634C153.585 98.5634 152.719 98.8212 151.974 99.3368C151.236 99.8452 150.66 100.565 150.245 101.496C149.836 102.42 149.632 103.505 149.632 104.751C149.632 106.025 149.833 107.135 150.234 108.08C150.642 109.026 151.215 109.76 151.952 110.282C152.697 110.805 153.571 111.067 154.573 111.067C155.232 111.067 155.83 110.952 156.367 110.723C156.904 110.494 157.359 110.164 157.731 109.735C158.104 109.305 158.369 108.789 158.526 108.188H161.061C160.918 109.162 160.564 110.039 159.998 110.819C159.439 111.593 158.698 112.209 157.774 112.667C156.858 113.118 155.791 113.344 154.573 113.344ZM170.777 113.344C169.187 113.344 167.816 112.993 166.663 112.291C165.517 111.582 164.633 110.594 164.01 109.326C163.394 108.052 163.086 106.569 163.086 104.879C163.086 103.189 163.394 101.7 164.01 100.411C164.633 99.1148 165.499 98.1051 166.609 97.3819C167.727 96.6514 169.03 96.2862 170.519 96.2862C171.379 96.2862 172.227 96.4294 173.065 96.7159C173.903 97.0023 174.666 97.4678 175.353 98.1123C176.04 98.7496 176.588 99.5946 176.996 100.647C177.405 101.7 177.609 102.996 177.609 104.536V105.61H164.891V103.419H175.031C175.031 102.488 174.845 101.657 174.472 100.927C174.107 100.196 173.584 99.6197 172.904 99.1972C172.231 98.7747 171.436 98.5634 170.519 98.5634C169.51 98.5634 168.636 98.8141 167.898 99.3153C167.168 99.8094 166.606 100.454 166.212 101.249C165.818 102.044 165.621 102.896 165.621 103.805V105.266C165.621 106.512 165.836 107.568 166.266 108.435C166.703 109.294 167.308 109.949 168.081 110.401C168.854 110.845 169.753 111.067 170.777 111.067C171.443 111.067 172.045 110.973 172.582 110.787C173.126 110.594 173.595 110.307 173.989 109.928C174.383 109.541 174.687 109.061 174.902 108.489L177.351 109.176C177.093 110.007 176.66 110.737 176.051 111.367C175.443 111.99 174.691 112.477 173.795 112.828C172.9 113.172 171.894 113.344 170.777 113.344ZM192.244 100.196L189.967 100.841C189.824 100.461 189.613 100.092 189.333 99.7342C189.061 99.369 188.689 99.0683 188.216 98.832C187.744 98.5956 187.138 98.4775 186.401 98.4775C185.391 98.4775 184.55 98.7102 183.877 99.1757C183.211 99.634 182.878 100.218 182.878 100.927C182.878 101.557 183.107 102.054 183.565 102.42C184.023 102.785 184.74 103.089 185.713 103.333L188.162 103.934C189.638 104.292 190.737 104.84 191.46 105.578C192.183 106.308 192.545 107.25 192.545 108.403C192.545 109.348 192.273 110.193 191.729 110.938C191.192 111.682 190.44 112.27 189.473 112.699C188.506 113.129 187.382 113.344 186.1 113.344C184.417 113.344 183.024 112.979 181.922 112.248C180.819 111.518 180.121 110.451 179.827 109.047L182.233 108.446C182.462 109.334 182.896 110 183.533 110.444C184.177 110.888 185.019 111.109 186.057 111.109C187.239 111.109 188.177 110.859 188.871 110.358C189.573 109.849 189.924 109.24 189.924 108.532C189.924 107.959 189.724 107.479 189.323 107.092C188.922 106.698 188.306 106.405 187.475 106.211L184.725 105.567C183.214 105.209 182.104 104.654 181.395 103.902C180.694 103.143 180.343 102.194 180.343 101.055C180.343 100.125 180.604 99.301 181.127 98.5849C181.657 97.8688 182.376 97.3067 183.286 96.8985C184.202 96.4903 185.241 96.2862 186.401 96.2862C188.034 96.2862 189.315 96.6443 190.246 97.3604C191.184 98.0765 191.85 99.0217 192.244 100.196ZM214.74 100.196L212.463 100.841C212.32 100.461 212.108 100.092 211.829 99.7342C211.557 99.369 211.185 99.0683 210.712 98.832C210.239 98.5956 209.634 98.4775 208.897 98.4775C207.887 98.4775 207.046 98.7102 206.372 99.1757C205.706 99.634 205.373 100.218 205.373 100.927C205.373 101.557 205.603 102.054 206.061 102.42C206.519 102.785 207.235 103.089 208.209 103.333L210.658 103.934C212.133 104.292 213.233 104.84 213.956 105.578C214.679 106.308 215.041 107.25 215.041 108.403C215.041 109.348 214.769 110.193 214.224 110.938C213.687 111.682 212.935 112.27 211.969 112.699C211.002 113.129 209.878 113.344 208.596 113.344C206.913 113.344 205.52 112.979 204.417 112.248C203.315 111.518 202.616 110.451 202.323 109.047L204.729 108.446C204.958 109.334 205.391 110 206.029 110.444C206.673 110.888 207.515 111.109 208.553 111.109C209.735 111.109 210.673 110.859 211.367 110.358C212.069 109.849 212.42 109.24 212.42 108.532C212.42 107.959 212.219 107.479 211.818 107.092C211.417 106.698 210.802 106.405 209.971 106.211L207.221 105.567C205.71 105.209 204.6 104.654 203.891 103.902C203.189 103.143 202.838 102.194 202.838 101.055C202.838 100.125 203.1 99.301 203.623 98.5849C204.153 97.8688 204.872 97.3067 205.782 96.8985C206.698 96.4903 207.737 96.2862 208.897 96.2862C210.529 96.2862 211.811 96.6443 212.742 97.3604C213.68 98.0765 214.346 99.0217 214.74 100.196ZM224.652 113.344C223.105 113.344 221.773 112.979 220.656 112.248C219.539 111.518 218.68 110.512 218.078 109.23C217.477 107.948 217.176 106.483 217.176 104.836C217.176 103.161 217.484 101.682 218.1 100.4C218.723 99.1112 219.589 98.1051 220.699 97.3819C221.816 96.6514 223.12 96.2862 224.609 96.2862C225.769 96.2862 226.815 96.501 227.746 96.9307C228.676 97.3604 229.439 97.9619 230.033 98.7353C230.628 99.5087 230.997 100.411 231.14 101.442H228.605C228.412 100.69 227.982 100.024 227.316 99.4442C226.657 98.857 225.769 98.5634 224.652 98.5634C223.664 98.5634 222.797 98.8212 222.053 99.3368C221.315 99.8452 220.739 100.565 220.323 101.496C219.915 102.42 219.711 103.505 219.711 104.751C219.711 106.025 219.911 107.135 220.312 108.08C220.721 109.026 221.293 109.76 222.031 110.282C222.776 110.805 223.649 111.067 224.652 111.067C225.311 111.067 225.909 110.952 226.446 110.723C226.983 110.494 227.438 110.164 227.81 109.735C228.182 109.305 228.447 108.789 228.605 108.188H231.14C230.997 109.162 230.642 110.039 230.076 110.819C229.518 111.593 228.777 112.209 227.853 112.667C226.936 113.118 225.869 113.344 224.652 113.344ZM233.938 113V96.501H236.387V98.9931H236.559C236.86 98.1767 237.404 97.5143 238.192 97.0059C238.98 96.4975 239.868 96.2433 240.856 96.2433C241.042 96.2433 241.275 96.2468 241.554 96.254C241.833 96.2612 242.045 96.2719 242.188 96.2862V98.8642C242.102 98.8427 241.905 98.8105 241.597 98.7675C241.296 98.7174 240.978 98.6923 240.641 98.6923C239.839 98.6923 239.123 98.8606 238.493 99.1972C237.87 99.5266 237.376 99.9849 237.01 100.572C236.652 101.152 236.473 101.815 236.473 102.559V113H233.938ZM250.486 113.344C248.996 113.344 247.689 112.989 246.565 112.28C245.448 111.571 244.574 110.58 243.944 109.305C243.321 108.03 243.01 106.541 243.01 104.836C243.01 103.118 243.321 101.618 243.944 100.336C244.574 99.0539 245.448 98.0586 246.565 97.3496C247.689 96.6407 248.996 96.2862 250.486 96.2862C251.975 96.2862 253.279 96.6407 254.396 97.3496C255.52 98.0586 256.394 99.0539 257.017 100.336C257.647 101.618 257.962 103.118 257.962 104.836C257.962 106.541 257.647 108.03 257.017 109.305C256.394 110.58 255.52 111.571 254.396 112.28C253.279 112.989 251.975 113.344 250.486 113.344ZM250.486 111.067C251.617 111.067 252.548 110.777 253.279 110.196C254.009 109.616 254.55 108.854 254.901 107.909C255.251 106.963 255.427 105.939 255.427 104.836C255.427 103.734 255.251 102.706 254.901 101.754C254.55 100.801 254.009 100.031 253.279 99.4442C252.548 98.857 251.617 98.5634 250.486 98.5634C249.354 98.5634 248.423 98.857 247.693 99.4442C246.963 100.031 246.422 100.801 246.071 101.754C245.72 102.706 245.545 103.734 245.545 104.836C245.545 105.939 245.72 106.963 246.071 107.909C246.422 108.854 246.963 109.616 247.693 110.196C248.423 110.777 249.354 111.067 250.486 111.067ZM263.459 91.0014V113H260.924V91.0014H263.459ZM269.73 91.0014V113H267.195V91.0014H269.73ZM288.412 96.501V98.6493H279.518V96.501H288.412ZM282.182 113V94.2239C282.182 93.2786 282.404 92.4909 282.848 91.8607C283.292 91.2306 283.869 90.7579 284.577 90.4428C285.286 90.1278 286.035 89.9702 286.822 89.9702C287.445 89.9702 287.954 90.0203 288.348 90.1206C288.742 90.2208 289.035 90.3139 289.229 90.3999L288.498 92.5911C288.369 92.5482 288.19 92.4945 287.961 92.43C287.739 92.3656 287.445 92.3333 287.08 92.3333C286.242 92.3333 285.637 92.5446 285.265 92.9671C284.9 93.3896 284.717 94.009 284.717 94.8254V113H282.182ZM295.44 113.387C294.395 113.387 293.446 113.19 292.594 112.796C291.741 112.395 291.065 111.818 290.563 111.067C290.062 110.307 289.811 109.391 289.811 108.317C289.811 107.371 289.998 106.605 290.37 106.018C290.742 105.424 291.24 104.958 291.863 104.622C292.486 104.285 293.174 104.034 293.925 103.87C294.685 103.698 295.447 103.562 296.213 103.462C297.216 103.333 298.029 103.236 298.652 103.172C299.282 103.1 299.74 102.982 300.027 102.817C300.32 102.652 300.467 102.366 300.467 101.958V101.872C300.467 100.812 300.177 99.9885 299.597 99.4013C299.024 98.8141 298.154 98.5205 296.987 98.5205C295.777 98.5205 294.828 98.7854 294.14 99.3153C293.453 99.8452 292.969 100.411 292.69 101.012L290.284 100.153C290.714 99.1506 291.287 98.3701 292.003 97.8115C292.726 97.2458 293.514 96.8519 294.366 96.6299C295.225 96.4008 296.07 96.2862 296.901 96.2862C297.431 96.2862 298.039 96.3507 298.727 96.4796C299.422 96.6013 300.091 96.8555 300.736 97.2422C301.387 97.6289 301.928 98.2125 302.358 98.9931C302.787 99.7736 303.002 100.819 303.002 102.13V113H300.467V110.766H300.338C300.166 111.124 299.88 111.507 299.479 111.915C299.078 112.323 298.544 112.671 297.878 112.957C297.212 113.243 296.4 113.387 295.44 113.387ZM295.827 111.109C296.829 111.109 297.674 110.913 298.362 110.519C299.056 110.125 299.579 109.616 299.93 108.993C300.288 108.37 300.467 107.715 300.467 107.028V104.708C300.36 104.836 300.123 104.955 299.758 105.062C299.4 105.162 298.985 105.252 298.512 105.331C298.047 105.402 297.592 105.467 297.148 105.524C296.711 105.574 296.357 105.617 296.085 105.653C295.426 105.739 294.81 105.878 294.237 106.072C293.671 106.258 293.213 106.541 292.862 106.92C292.518 107.293 292.346 107.801 292.346 108.446C292.346 109.326 292.672 109.992 293.324 110.444C293.983 110.888 294.817 111.109 295.827 111.109ZM318.408 100.196L316.131 100.841C315.988 100.461 315.777 100.092 315.497 99.7342C315.225 99.369 314.853 99.0683 314.38 98.832C313.908 98.5956 313.302 98.4775 312.565 98.4775C311.555 98.4775 310.714 98.7102 310.041 99.1757C309.375 99.634 309.042 100.218 309.042 100.927C309.042 101.557 309.271 102.054 309.729 102.42C310.187 102.785 310.904 103.089 311.877 103.333L314.326 103.934C315.802 104.292 316.901 104.84 317.624 105.578C318.347 106.308 318.709 107.25 318.709 108.403C318.709 109.348 318.437 110.193 317.893 110.938C317.356 111.682 316.604 112.27 315.637 112.699C314.67 113.129 313.546 113.344 312.264 113.344C310.581 113.344 309.188 112.979 308.086 112.248C306.983 111.518 306.285 110.451 305.991 109.047L308.397 108.446C308.626 109.334 309.06 110 309.697 110.444C310.341 110.888 311.183 111.109 312.221 111.109C313.403 111.109 314.341 110.859 315.035 110.358C315.737 109.849 316.088 109.24 316.088 108.532C316.088 107.959 315.888 107.479 315.487 107.092C315.086 106.698 314.47 106.405 313.639 106.211L310.889 105.567C309.378 105.209 308.268 104.654 307.559 103.902C306.858 103.143 306.507 102.194 306.507 101.055C306.507 100.125 306.768 99.301 307.291 98.5849C307.821 97.8688 308.54 97.3067 309.45 96.8985C310.366 96.4903 311.405 96.2862 312.565 96.2862C314.198 96.2862 315.479 96.6443 316.41 97.3604C317.348 98.0765 318.014 99.0217 318.408 100.196ZM328.793 96.501V98.6493H320.243V96.501H328.793ZM322.735 92.5482H325.27V108.274C325.27 108.99 325.373 109.527 325.581 109.885C325.796 110.236 326.068 110.472 326.397 110.594C326.734 110.708 327.089 110.766 327.461 110.766C327.74 110.766 327.969 110.751 328.148 110.723C328.327 110.687 328.471 110.658 328.578 110.637L329.094 112.914C328.922 112.979 328.682 113.043 328.374 113.107C328.066 113.179 327.676 113.215 327.203 113.215C326.487 113.215 325.785 113.061 325.098 112.753C324.417 112.445 323.852 111.976 323.401 111.346C322.957 110.716 322.735 109.921 322.735 108.961V92.5482Z" fill="white"/>
</g>
<defs>
<linearGradient id="paint0_linear_9_98" x1="341.468" y1="241.685" x2="341.468" y2="770.04" gradientUnits="userSpaceOnUse">
<stop stop-color="#FF96BC"/>
<stop offset="1" stop-color="#F57BA2"/>
</linearGradient>
<clipPath id="clip0_9_98">
<rect width="383" height="810" fill="white"/>
</clipPath>
</defs>
</svg>
